<svg width="41" height="40" viewBox="0 0 41 40" fill="none" xmlns="http://www.w3.org/2000/svg">
<rect x="0.392151" width="40" height="40" rx="20" fill="#0A66C2"/>
<path d="M13.8866 11.7657C13.8863 12.3897 13.6382 12.9881 13.1966 13.429C12.7552 13.8701 12.1566 14.1176 11.5326 14.1174C10.9086 14.117 10.3103 13.8689 9.86929 13.4274C9.42827 12.986 9.18069 12.3874 9.181 11.7634C9.18132 11.1394 9.42949 10.541 9.87095 10.1C10.3124 9.65901 10.911 9.41144 11.535 9.41174C12.159 9.41206 12.7573 9.66024 13.1984 10.1017C13.6393 10.5432 13.887 11.1417 13.8866 11.7657ZM13.9572 15.8596H9.25159V30.5882H13.9572V15.8596ZM21.392 15.8596H16.71V30.5882H21.345V22.8593C21.345 18.5536 26.9565 18.1536 26.9565 22.8593V30.5882H31.6033V21.2593C31.6033 14.0009 23.2979 14.2715 21.345 17.836L21.392 15.8596Z" fill="white"/>
</svg>
