<svg width="41" height="40" viewBox="0 0 41 40" fill="none" xmlns="http://www.w3.org/2000/svg">
<rect x="0.156853" width="40" height="40" rx="20" fill="url(#paint0_radial_59_33)"/>
<rect x="0.156853" width="40" height="40" rx="20" fill="url(#paint1_radial_59_33)"/>
<path d="M20.1521 11.3205C22.9803 11.3205 23.3125 11.3331 24.4304 11.3834C25.4641 11.4297 26.0227 11.6018 26.3967 11.7487C26.8925 11.942 27.2459 12.169 27.6152 12.5389C27.9845 12.9089 28.2161 13.2617 28.4054 13.7574C28.5484 14.1314 28.7251 14.6907 28.7707 15.7237C28.8211 16.8416 28.8337 17.1733 28.8337 20.002C28.8337 22.8307 28.8211 23.1623 28.7707 24.2801C28.7245 25.314 28.5524 25.8726 28.4054 26.2464C28.2121 26.7422 27.9852 27.0956 27.6152 27.4649C27.2452 27.8342 26.8925 28.0659 26.3967 28.2552C26.0227 28.3982 25.4636 28.5749 24.4304 28.6206C23.3125 28.6708 22.981 28.6834 20.1521 28.6834C17.3234 28.6834 16.9919 28.6708 15.874 28.6206C14.8403 28.5742 14.2816 28.4021 13.9077 28.2552C13.4119 28.062 13.0585 27.8349 12.6892 27.4649C12.3199 27.095 12.0883 26.7422 11.899 26.2464C11.756 25.8726 11.5793 25.3133 11.5336 24.2801C11.4833 23.1623 11.4707 22.8307 11.4707 20.002C11.4707 17.1733 11.4833 16.8416 11.5336 15.7237C11.5799 14.69 11.752 14.1314 11.899 13.7574C12.0923 13.2617 12.3192 12.9083 12.6892 12.5389C13.0592 12.1696 13.4119 11.938 13.9077 11.7487C14.2816 11.6058 14.8409 11.429 15.874 11.3834C16.9919 11.3284 17.3234 11.3205 20.1521 11.3205ZM20.1521 9.4124C17.2778 9.4124 16.9164 9.42498 15.786 9.47528C14.6596 9.52558 13.8905 9.70626 13.2187 9.96704C12.5211 10.2357 11.9327 10.6017 11.3443 11.1901C10.7559 11.7786 10.3946 12.3709 10.1212 13.0644C9.86046 13.7369 9.67978 14.506 9.62949 15.6364C9.57918 16.7629 9.5666 17.1242 9.5666 19.998C9.5666 22.8717 9.57918 23.2337 9.62949 24.3642C9.67978 25.4907 9.86046 26.2597 10.1212 26.9361C10.3899 27.6337 10.7559 28.2221 11.3443 28.8104C11.9327 29.3989 12.5251 29.7602 13.2187 30.0336C13.8911 30.2943 14.6601 30.475 15.7906 30.5254C16.9211 30.5756 17.2785 30.5882 20.1569 30.5882C23.0352 30.5882 23.3926 30.5756 24.5231 30.5254C25.6494 30.475 26.4186 30.2943 27.095 30.0336C27.7926 29.7649 28.381 29.3989 28.9693 28.8104C29.5577 28.2221 29.9191 27.6297 30.1924 26.9361C30.4532 26.2637 30.6339 25.4947 30.6841 24.3642C30.7345 23.2337 30.7471 22.8763 30.7471 19.998C30.7471 17.1196 30.7345 16.7622 30.6841 15.6317C30.6339 14.5053 30.4532 13.7362 30.1924 13.0599C29.9237 12.3622 29.5577 11.7739 28.9693 11.1855C28.381 10.5971 27.7886 10.2357 27.095 9.9624C26.4225 9.70164 25.6534 9.52094 24.5231 9.47065C23.3886 9.42432 23.0265 9.4124 20.1521 9.4124ZM20.1521 14.5602C17.152 14.5602 14.7145 16.9932 14.7145 19.998C14.7145 23.0028 17.152 25.4357 20.1521 25.4357C23.1524 25.4357 25.5899 22.9981 25.5899 19.998C25.5899 16.9979 23.1524 14.5602 20.1521 14.5602ZM20.1521 23.5276C18.2024 23.5276 16.6226 21.9477 16.6226 19.998C16.6226 18.0482 18.2024 16.4683 20.1521 16.4683C22.102 16.4683 23.6818 18.0482 23.6818 19.998C23.6818 21.9477 22.102 23.5276 20.1521 23.5276ZM27.0731 14.3459C27.0731 15.0467 26.5053 15.6146 25.8044 15.6146C25.1034 15.6146 24.5356 15.0467 24.5356 14.3459C24.5356 13.6449 25.1034 13.077 25.8044 13.077C26.5053 13.077 27.0731 13.6449 27.0731 14.3459Z" fill="white"/>
<defs>
<radialGradient id="paint0_radial_59_33" cx="0" cy="0" r="1" gradientUnits="userSpaceOnUse" gradientTransform="translate(10.7819 43.0808) rotate(-90) scale(39.643 36.8711)">
<stop stop-color="#FFDD55"/>
<stop offset="0.1" stop-color="#FFDD55"/>
<stop offset="0.5" stop-color="#FF543E"/>
<stop offset="1" stop-color="#C837AB"/>
</radialGradient>
<radialGradient id="paint1_radial_59_33" cx="0" cy="0" r="1" gradientUnits="userSpaceOnUse" gradientTransform="translate(-6.5433 2.88141) rotate(78.681) scale(17.7206 73.045)">
<stop stop-color="#3771C8"/>
<stop offset="0.128" stop-color="#3771C8"/>
<stop offset="1" stop-color="#6600FF" stop-opacity="0"/>
</radialGradient>
</defs>
</svg>
