<svg width="41" height="40" viewBox="0 0 41 40" fill="none" xmlns="http://www.w3.org/2000/svg">
<rect x="0.686264" width="40" height="40" rx="20" fill="#FF0000"/>
<path d="M33.0866 13.7483C32.789 12.6274 31.9119 11.7447 30.7984 11.4451C28.7799 10.9008 20.6863 10.9008 20.6863 10.9008C20.6863 10.9008 12.5926 10.9008 10.5742 11.4451C9.46063 11.7447 8.58359 12.6274 8.28592 13.7483C7.74509 15.7798 7.74509 20.0184 7.74509 20.0184C7.74509 20.0184 7.74509 24.2571 8.28592 26.2886C8.58359 27.4094 9.46063 28.2553 10.5742 28.555C12.5926 29.0993 20.6863 29.0993 20.6863 29.0993C20.6863 29.0993 28.7799 29.0993 30.7984 28.555C31.9119 28.2553 32.789 27.4094 33.0866 26.2886C33.6274 24.2571 33.6274 20.0184 33.6274 20.0184C33.6274 20.0184 33.6274 15.7798 33.0866 13.7483ZM18.0392 23.8667V16.17L24.8039 20.0185L18.0392 23.8667Z" fill="white"/>
</svg>
