<svg width="129" height="44" viewBox="0 0 129 44" fill="none" xmlns="http://www.w3.org/2000/svg">
<path d="M7.24677 6.11417V9.15549H8.83291V12.2114H7.24677V22.5431C7.24677 23.8139 7.30983 24.5221 7.43594 24.6676C7.57176 24.8132 8.11988 24.8859 9.08029 24.8859V28H6.70836C5.36959 28 4.41403 27.9466 3.84166 27.8399C3.26929 27.7235 2.76483 27.4664 2.32828 27.0687C1.89173 26.6612 1.62009 26.2004 1.51338 25.6863C1.40667 25.1624 1.35331 23.9401 1.35331 22.0192V12.2114H0.0873105V9.15549H1.35331V6.11417H7.24677ZM23.4429 18.6869H15.8323V22.8632C15.8323 23.7363 15.8954 24.299 16.0215 24.5512C16.1476 24.8035 16.3901 24.9296 16.7491 24.9296C17.1953 24.9296 17.4912 24.7647 17.6367 24.4348C17.7919 24.0953 17.8695 23.4453 17.8695 22.4849V19.9383H23.4429V21.3644C23.4429 22.5576 23.3653 23.4744 23.21 24.1147C23.0645 24.755 22.7153 25.4389 22.1623 26.1665C21.6093 26.8941 20.906 27.4422 20.0523 27.8108C19.2083 28.1698 18.146 28.3492 16.8655 28.3492C15.6237 28.3492 14.5275 28.1698 13.5768 27.8108C12.6261 27.4519 11.8839 26.962 11.3504 26.3411C10.8265 25.7105 10.4627 25.0217 10.259 24.2748C10.0553 23.5181 9.9534 22.4218 9.9534 20.9861V15.3545C9.9534 13.6665 10.1814 12.3375 10.6373 11.3674C11.0933 10.3875 11.8403 9.64055 12.8783 9.12638C13.9163 8.60252 15.1096 8.34059 16.458 8.34059C18.1072 8.34059 19.4654 8.65588 20.5325 9.28645C21.6093 9.90733 22.3612 10.7368 22.788 11.7748C23.2246 12.8031 23.4429 14.2534 23.4429 16.1258V18.6869ZM17.5494 15.5437V14.1322C17.5494 13.133 17.4961 12.4878 17.3893 12.1968C17.2826 11.9058 17.0643 11.7602 16.7345 11.7602C16.3271 11.7602 16.0748 11.8864 15.9778 12.1386C15.8808 12.3811 15.8323 13.0457 15.8323 14.1322V15.5437H17.5494ZM38.373 15.9803H32.8287V13.7538C32.8287 12.9777 32.7657 12.4539 32.6396 12.1823C32.5135 11.9009 32.2806 11.7602 31.9411 11.7602C31.6015 11.7602 31.3736 11.8815 31.2572 12.124C31.1407 12.3666 31.0825 12.9098 31.0825 13.7538V22.8632C31.0825 23.552 31.1698 24.071 31.3445 24.4203C31.5191 24.7598 31.7762 24.9296 32.1157 24.9296C32.5135 24.9296 32.7802 24.7501 32.9161 24.3912C33.0616 24.0322 33.1343 23.3531 33.1343 22.3539V20.0547H38.373C38.3633 21.5972 38.3051 22.7565 38.1983 23.5326C38.1013 24.299 37.7763 25.0897 37.2234 25.9045C36.6801 26.7097 35.9671 27.3209 35.0843 27.7381C34.2015 28.1455 33.1101 28.3492 31.8101 28.3492C30.1512 28.3492 28.8367 28.0679 27.8666 27.5052C26.8965 26.9329 26.2077 26.1374 25.8002 25.1188C25.4025 24.0904 25.2036 22.6353 25.2036 20.7532V15.2672C25.2036 13.6277 25.3685 12.3908 25.6984 11.5565C26.0282 10.7222 26.7316 9.98009 27.8084 9.33011C28.8852 8.67043 30.1949 8.34059 31.7374 8.34059C33.2701 8.34059 34.5798 8.66558 35.6663 9.31556C36.7529 9.96553 37.4756 10.7853 37.8345 11.7748C38.1935 12.7643 38.373 14.1661 38.373 15.9803ZM46.0126 4.44072V9.73756C46.5171 9.2719 47.0604 8.92266 47.6424 8.68983C48.2342 8.457 48.8648 8.34059 49.5341 8.34059C50.5625 8.34059 51.4356 8.60252 52.1535 9.12638C52.8811 9.65025 53.3225 10.2566 53.4777 10.9454C53.6426 11.6244 53.7251 12.871 53.7251 14.6852V28H47.8461V14.4087C47.8461 13.2833 47.7879 12.5606 47.6715 12.2405C47.5648 11.9203 47.3174 11.7602 46.9294 11.7602C46.5704 11.7602 46.3279 11.9252 46.2018 12.255C46.0757 12.5848 46.0126 13.2397 46.0126 14.2195V28H40.1337V4.44072H46.0126Z" fill="#183884"/>
<path d="M74.7523 8.68983L72.4095 28H66.0213C65.672 25.6426 65.2694 22.5382 64.8135 18.6869C64.6583 20.3749 64.44 22.0823 64.1587 23.8091L63.5038 28H57.1156L54.6273 8.68983H59.6913C59.7301 9.19429 60.1569 12.8759 60.9718 19.7346C61.03 19.0361 61.4666 15.3545 62.2815 8.68983H67.1563L68.3496 19.7346C68.5339 16.5138 68.9801 12.8322 69.6883 8.68983H74.7523ZM89.0276 15.4709V20.2003C89.0276 21.9368 88.9403 23.2125 88.7657 24.0274C88.591 24.8326 88.2175 25.5893 87.6452 26.2974C87.0728 26.9959 86.3355 27.5149 85.4333 27.8545C84.5408 28.1843 83.5125 28.3492 82.3483 28.3492C81.0484 28.3492 79.9473 28.2086 79.0451 27.9272C78.1429 27.6362 77.4396 27.2045 76.9351 26.6321C76.4403 26.0501 76.0862 25.3516 75.8728 24.5367C75.6594 23.7121 75.5527 22.48 75.5527 20.8405V15.8929C75.5527 14.0982 75.7467 12.6964 76.1347 11.6875C76.5228 10.6786 77.2213 9.86852 78.2302 9.25735C79.2391 8.64618 80.5294 8.34059 82.101 8.34059C83.4203 8.34059 84.5505 8.53946 85.4915 8.93721C86.4422 9.32526 87.1747 9.83457 87.6888 10.4651C88.203 11.0957 88.5522 11.7457 88.7366 12.4151C88.9306 13.0845 89.0276 14.1031 89.0276 15.4709ZM83.1487 14.0158C83.1487 13.0263 83.0953 12.4054 82.9886 12.1531C82.8819 11.8912 82.6539 11.7602 82.3047 11.7602C81.9554 11.7602 81.7226 11.8912 81.6062 12.1531C81.4898 12.4054 81.4316 13.0263 81.4316 14.0158V22.7323C81.4316 23.6442 81.4898 24.2408 81.6062 24.5221C81.7226 24.7938 81.9506 24.9296 82.2901 24.9296C82.6394 24.9296 82.8674 24.8035 82.9741 24.5512C83.0905 24.299 83.1487 23.7557 83.1487 22.9214V14.0158ZM96.8564 8.68983L96.6236 11.2218C97.4773 9.40772 98.7142 8.4473 100.334 8.34059V15.1363C99.2575 15.1363 98.4668 15.2818 97.9624 15.5728C97.4579 15.8638 97.1475 16.2713 97.0311 16.7952C96.9146 17.3093 96.8564 18.5026 96.8564 20.3749V28H90.9775V8.68983H96.8564ZM114.319 8.68983L111.932 16.3877L115.032 28H109.371L107.537 19.5891V28H101.659V4.44072H107.537V14.3359L109.371 8.68983H114.319ZM127.924 14.8598H122.715V13.812C122.715 12.9195 122.662 12.3569 122.555 12.124C122.458 11.8815 122.206 11.7602 121.798 11.7602C121.468 11.7602 121.221 11.8718 121.056 12.0949C120.891 12.3084 120.809 12.6334 120.809 13.0699C120.809 13.6617 120.847 14.0982 120.925 14.3796C121.012 14.6512 121.26 14.9519 121.667 15.2818C122.084 15.6116 122.933 16.0918 124.214 16.7224C125.921 17.5567 127.042 18.3425 127.575 19.0798C128.109 19.8171 128.376 20.889 128.376 22.2957C128.376 23.8673 128.172 25.0557 127.764 25.8609C127.357 26.6564 126.673 27.2724 125.713 27.709C124.762 28.1358 123.612 28.3492 122.264 28.3492C120.77 28.3492 119.489 28.1164 118.422 27.6508C117.365 27.1851 116.637 26.5545 116.239 25.759C115.842 24.9635 115.643 23.7606 115.643 22.1502V21.2189H120.852V22.4412C120.852 23.4793 120.915 24.1535 121.041 24.4639C121.177 24.7744 121.439 24.9296 121.827 24.9296C122.244 24.9296 122.535 24.8277 122.7 24.624C122.865 24.4106 122.948 23.9692 122.948 23.2998C122.948 22.3782 122.841 21.801 122.628 21.5681C122.404 21.3353 121.265 20.6465 119.208 19.5018C117.481 18.5317 116.429 17.6537 116.05 16.8679C115.672 16.0724 115.483 15.1314 115.483 14.0449C115.483 12.5024 115.686 11.3674 116.094 10.6398C116.501 9.90248 117.19 9.33496 118.16 8.93721C119.14 8.53946 120.275 8.34059 121.565 8.34059C122.846 8.34059 123.932 8.50551 124.825 8.83535C125.727 9.15549 126.416 9.58234 126.891 10.1159C127.376 10.6495 127.667 11.1442 127.764 11.6002C127.871 12.0561 127.924 12.7692 127.924 13.7393V14.8598Z" fill="#E25422"/>
<path d="M6.1896 37.7178L5.81323 33.9912L4.13812 37.7178H3.85186L2.10254 33.9912L1.78448 37.7178H1.23847L1.71026 32.7985H2.59553L4.22293 36.26L5.77082 32.7985H6.63489L7.14908 37.7178H6.1896ZM11.0082 37.7178L10.4622 36.0692L8.71288 36.0957L8.15097 37.7178H7.55196L9.3914 32.8727L10.3085 32.7083L12.0207 37.7178H11.0082ZM10.3138 35.608L9.60874 33.4982L8.88251 35.608H10.3138ZM16.3357 33.1589C16.2509 33.1589 16.1696 33.1713 16.0919 33.196C16.0141 33.2172 15.9346 33.2526 15.8533 33.302C15.772 33.3515 15.6855 33.4169 15.5936 33.4982C15.5052 33.5759 15.408 33.6713 15.302 33.7844C15.1854 33.9081 15.0617 34.046 14.9309 34.1979C14.8037 34.3463 14.6659 34.5071 14.5175 34.6803C14.7118 35.0761 14.8974 35.4383 15.0741 35.767C15.2543 36.0957 15.4292 36.3802 15.5989 36.6205C15.772 36.8572 15.9434 37.0428 16.1131 37.1771C16.2827 37.3078 16.4594 37.3732 16.6432 37.3732H16.7015V37.686C16.599 37.7142 16.4947 37.7354 16.3887 37.7496C16.2827 37.7637 16.159 37.7708 16.0176 37.7708C15.7879 37.7708 15.5883 37.7319 15.4186 37.6542C15.249 37.5764 15.0864 37.4457 14.9309 37.2619C14.7754 37.0746 14.6146 36.829 14.4486 36.525C14.286 36.2176 14.0987 35.8377 13.8866 35.3853C13.8619 35.4136 13.8319 35.4489 13.7965 35.4914C13.7647 35.5302 13.7294 35.5709 13.6905 35.6133C13.6552 35.6557 13.6216 35.6981 13.5898 35.7405C13.558 35.7794 13.5332 35.8094 13.5156 35.8306V37.7178H12.572V32.8303H13.5156V35.1203C13.6075 35.0107 13.717 34.8747 13.8442 34.7121C13.975 34.5495 14.1075 34.3834 14.2418 34.2138C14.3796 34.0442 14.5104 33.8834 14.6341 33.7314C14.7613 33.5795 14.8673 33.4575 14.9521 33.3657C15.0617 33.2455 15.1607 33.1501 15.249 33.0794C15.3374 33.0052 15.4239 32.9504 15.5088 32.9151C15.5971 32.8762 15.6872 32.8515 15.7791 32.8409C15.871 32.8303 15.977 32.825 16.0972 32.825C16.1466 32.825 16.2032 32.8285 16.2668 32.8356C16.3339 32.8391 16.3799 32.8462 16.4046 32.8568V33.1589H16.3357ZM18.1062 37.7178H17.1627V32.8303H18.1062V37.7178ZM23.0044 37.7443L19.723 34.3145H19.7124C19.7195 34.6008 19.7266 34.8641 19.7336 35.1044C19.7372 35.2069 19.7389 35.3094 19.7389 35.4118C19.7425 35.5143 19.7442 35.6097 19.7442 35.6981C19.7478 35.7829 19.7495 35.8589 19.7495 35.926C19.7495 35.9932 19.7495 36.0409 19.7495 36.0692V37.7178H19.1982V32.7985H19.6117L22.893 36.2123C22.8895 35.9508 22.886 35.7052 22.8824 35.4755C22.8824 35.3765 22.8807 35.2775 22.8771 35.1786C22.8771 35.0761 22.8754 34.9789 22.8718 34.887C22.8718 34.7952 22.8718 34.7121 22.8718 34.6379C22.8718 34.5601 22.8718 34.4983 22.8718 34.4524V32.8356H23.4284V37.7443H23.0044ZM27.4307 35.8306L26.397 35.7776L26.4447 35.38H28.3955V37.3732C28.2894 37.4192 28.1587 37.4669 28.0032 37.5163C27.8477 37.5658 27.6798 37.61 27.4996 37.6489C27.3194 37.6877 27.1321 37.7195 26.9377 37.7443C26.7469 37.7726 26.5613 37.7867 26.3811 37.7867C26.0206 37.7867 25.7132 37.7248 25.4587 37.6012C25.2043 37.4775 24.9975 37.3043 24.8385 37.0817C24.6795 36.859 24.5628 36.5922 24.4886 36.2812C24.418 35.9667 24.3826 35.6186 24.3826 35.2369C24.3826 34.8552 24.4445 34.5124 24.5681 34.2085C24.6918 33.9046 24.8668 33.6466 25.0929 33.4346C25.3191 33.2225 25.5895 33.06 25.904 32.9469C26.2185 32.8338 26.5649 32.7772 26.943 32.7772C27.0384 32.7772 27.1427 32.7808 27.2558 32.7878C27.3724 32.7949 27.4872 32.8038 27.6003 32.8144C27.7134 32.825 27.8194 32.8391 27.9184 32.8568C28.0209 32.8709 28.1039 32.8868 28.1675 32.9045L28.0085 33.6148C27.9307 33.5901 27.8318 33.5653 27.7116 33.5406C27.5915 33.5123 27.4643 33.4876 27.33 33.4664C27.1992 33.4452 27.0685 33.4275 26.9377 33.4134C26.8069 33.3992 26.6903 33.3922 26.5878 33.3922C26.4182 33.3922 26.2574 33.4063 26.1054 33.4346C25.957 33.4593 25.821 33.5212 25.6973 33.6201C25.6301 33.6731 25.5736 33.7579 25.5276 33.8746C25.4852 33.9876 25.4516 34.1184 25.4269 34.2668C25.4022 34.4153 25.3845 34.5743 25.3739 34.7439C25.3668 34.9135 25.3633 35.0796 25.3633 35.2422C25.3633 35.896 25.4446 36.3961 25.6071 36.7424C25.7697 37.0887 26.0259 37.2619 26.3758 37.2619C26.4641 37.2619 26.5578 37.2584 26.6567 37.2513C26.7557 37.2442 26.8529 37.2354 26.9483 37.2248C27.0437 37.2106 27.1321 37.1965 27.2133 37.1824C27.2982 37.1682 27.3706 37.1541 27.4307 37.14V35.8306ZM31.7563 37.7178V33.3498L30.3303 33.3286L30.378 32.8303H34.1364L34.0887 33.3126L32.7052 33.3498V37.7178H31.7563ZM37.545 37.7178H34.7514V32.8303H37.4496L37.4019 33.3286L35.6949 33.3498V34.9401L37.3011 34.9613L37.2587 35.4118L35.6949 35.4489V37.1983L37.5874 37.2354L37.545 37.7178ZM40.2167 37.7867C39.8527 37.7867 39.5435 37.7248 39.289 37.6012C39.0346 37.4775 38.8278 37.3043 38.6688 37.0817C38.5098 36.859 38.3931 36.5922 38.3189 36.2812C38.2482 35.9667 38.2129 35.6186 38.2129 35.2369C38.2129 34.9295 38.2482 34.6556 38.3189 34.4153C38.3896 34.1714 38.485 33.9594 38.6052 33.7791C38.7289 33.5954 38.8702 33.4399 39.0293 33.3126C39.1918 33.1854 39.3615 33.0829 39.5382 33.0052C39.7184 32.9239 39.9022 32.8656 40.0895 32.8303C40.2768 32.7949 40.4588 32.7772 40.6355 32.7772C40.745 32.7772 40.8599 32.7808 40.98 32.7878C41.1037 32.7949 41.2221 32.8055 41.3352 32.8197C41.4518 32.8303 41.5596 32.8444 41.6586 32.8621C41.7575 32.8762 41.8388 32.8903 41.9024 32.9045L41.7275 33.5989C41.6639 33.5777 41.5737 33.5565 41.4571 33.5353C41.3405 33.5106 41.215 33.4876 41.0807 33.4664C40.95 33.4452 40.8192 33.4275 40.6885 33.4134C40.5612 33.3992 40.4552 33.3922 40.3704 33.3922C40.275 33.3922 40.1902 33.3957 40.116 33.4028C40.0418 33.4063 39.9728 33.4169 39.9092 33.4346C39.8491 33.4487 39.7908 33.4699 39.7343 33.4982C39.6813 33.5265 39.6265 33.5618 39.57 33.6042C39.4251 33.7067 39.3261 33.9011 39.2731 34.1873C39.2236 34.4736 39.1989 34.8305 39.1989 35.2581C39.1989 35.9154 39.2961 36.4137 39.4904 36.753C39.6848 37.0887 39.9976 37.2566 40.4287 37.2566C40.6726 37.2566 40.927 37.2371 41.1921 37.1983C41.4571 37.1559 41.6974 37.0976 41.913 37.0233V37.4315C41.7928 37.4881 41.6621 37.5393 41.5207 37.5852C41.3829 37.6277 41.2398 37.6648 41.0913 37.6966C40.9465 37.7248 40.798 37.746 40.6461 37.7602C40.4976 37.7779 40.3545 37.7867 40.2167 37.7867ZM45.7774 37.7178V35.5179H43.6782V37.7178H42.7347V32.8303H43.6782V34.9719H45.7774V32.8303H46.7263V37.7178H45.7774ZM51.6297 37.7443L48.3484 34.3145H48.3378C48.3449 34.6008 48.3519 34.8641 48.359 35.1044C48.3625 35.2069 48.3643 35.3094 48.3643 35.4118C48.3678 35.5143 48.3696 35.6097 48.3696 35.6981C48.3731 35.7829 48.3749 35.8589 48.3749 35.926C48.3749 35.9932 48.3749 36.0409 48.3749 36.0692V37.7178H47.8236V32.7985H48.2371L51.5184 36.2123C51.5149 35.9508 51.5113 35.7052 51.5078 35.4755C51.5078 35.3765 51.506 35.2775 51.5025 35.1786C51.5025 35.0761 51.5007 34.9789 51.4972 34.887C51.4972 34.7952 51.4972 34.7121 51.4972 34.6379C51.4972 34.5601 51.4972 34.4983 51.4972 34.4524V32.8356H52.0538V37.7443H51.6297ZM57.6145 35.2581C57.6145 35.6433 57.5651 35.9914 57.4661 36.3024C57.3707 36.6134 57.224 36.8802 57.0261 37.1029C56.8318 37.322 56.5879 37.4916 56.2946 37.6118C56.0013 37.7284 55.6602 37.7867 55.2715 37.7867C54.8722 37.7867 54.5294 37.7266 54.2431 37.6065C53.9569 37.4863 53.7218 37.3167 53.5381 37.0976C53.3578 36.8749 53.2236 36.6081 53.1352 36.2971C53.0504 35.9861 53.008 35.6398 53.008 35.2581C53.008 34.8764 53.0522 34.5336 53.1405 34.2297C53.2289 33.9223 53.3649 33.6607 53.5487 33.4452C53.736 33.2296 53.9728 33.0653 54.259 32.9522C54.5453 32.8356 54.8845 32.7772 55.2768 32.7772C55.6691 32.7772 56.0101 32.8356 56.2999 32.9522C56.5932 33.0653 56.8371 33.2296 57.0314 33.4452C57.2258 33.6607 57.3707 33.9223 57.4661 34.2297C57.5651 34.5336 57.6145 34.8764 57.6145 35.2581ZM56.618 35.2581C56.618 34.9613 56.5915 34.6944 56.5384 34.4577C56.489 34.2209 56.4095 34.0212 56.2999 33.8586C56.1903 33.6926 56.0508 33.5671 55.8811 33.4823C55.7115 33.3939 55.51 33.3498 55.2768 33.3498C55.0718 33.3498 54.881 33.3727 54.7043 33.4187C54.5276 33.4611 54.388 33.5229 54.2855 33.6042C54.183 33.6855 54.1071 33.864 54.0576 34.1396C54.0116 34.4153 53.9887 34.7881 53.9887 35.2581C53.9887 35.5514 54.0099 35.8183 54.0523 36.0586C54.0947 36.2953 54.1654 36.5003 54.2643 36.6735C54.3633 36.8466 54.494 36.9809 54.6566 37.0764C54.8227 37.1682 55.0277 37.2142 55.2715 37.2142C55.5224 37.2142 55.7292 37.1912 55.8917 37.1453C56.0543 37.0993 56.1921 37.0375 56.3052 36.9597C56.3582 36.9244 56.4042 36.8537 56.443 36.7477C56.4819 36.6417 56.5137 36.5127 56.5384 36.3607C56.5667 36.2052 56.5862 36.0338 56.5968 35.8465C56.6109 35.6557 56.618 35.4595 56.618 35.2581ZM58.574 37.7178V32.8303H59.5176V37.2036H61.2828L61.2351 37.7178H58.574ZM66.4566 35.2581C66.4566 35.6433 66.4071 35.9914 66.3082 36.3024C66.2128 36.6134 66.0661 36.8802 65.8682 37.1029C65.6738 37.322 65.43 37.4916 65.1367 37.6118C64.8433 37.7284 64.5023 37.7867 64.1136 37.7867C63.7142 37.7867 63.3714 37.7266 63.0852 37.6065C62.7989 37.4863 62.5639 37.3167 62.3801 37.0976C62.1999 36.8749 62.0656 36.6081 61.9773 36.2971C61.8924 35.9861 61.85 35.6398 61.85 35.2581C61.85 34.8764 61.8942 34.5336 61.9826 34.2297C62.0709 33.9223 62.207 33.6607 62.3907 33.4452C62.578 33.2296 62.8148 33.0653 63.1011 32.9522C63.3873 32.8356 63.7266 32.7772 64.1189 32.7772C64.5111 32.7772 64.8522 32.8356 65.142 32.9522C65.4353 33.0653 65.6791 33.2296 65.8735 33.4452C66.0679 33.6607 66.2128 33.9223 66.3082 34.2297C66.4071 34.5336 66.4566 34.8764 66.4566 35.2581ZM65.46 35.2581C65.46 34.9613 65.4335 34.6944 65.3805 34.4577C65.331 34.2209 65.2515 34.0212 65.142 33.8586C65.0324 33.6926 64.8928 33.5671 64.7232 33.4823C64.5535 33.3939 64.3521 33.3498 64.1189 33.3498C63.9139 33.3498 63.7231 33.3727 63.5464 33.4187C63.3697 33.4611 63.2301 33.5229 63.1276 33.6042C63.0251 33.6855 62.9491 33.864 62.8996 34.1396C62.8537 34.4153 62.8307 34.7881 62.8307 35.2581C62.8307 35.5514 62.8519 35.8183 62.8943 36.0586C62.9367 36.2953 63.0074 36.5003 63.1064 36.6735C63.2053 36.8466 63.3361 36.9809 63.4986 37.0764C63.6647 37.1682 63.8697 37.2142 64.1136 37.2142C64.3645 37.2142 64.5712 37.1912 64.7338 37.1453C64.8963 37.0993 65.0342 37.0375 65.1473 36.9597C65.2003 36.9244 65.2462 36.8537 65.2851 36.7477C65.324 36.6417 65.3558 36.5127 65.3805 36.3607C65.4088 36.2052 65.4282 36.0338 65.4388 35.8465C65.4529 35.6557 65.46 35.4595 65.46 35.2581ZM70.3263 35.8306L69.2926 35.7776L69.3403 35.38H71.2911V37.3732C71.1851 37.4192 71.0543 37.4669 70.8988 37.5163C70.7433 37.5658 70.5755 37.61 70.3952 37.6489C70.215 37.6877 70.0277 37.7195 69.8333 37.7443C69.6425 37.7726 69.457 37.7867 69.2767 37.7867C68.9163 37.7867 68.6088 37.7248 68.3544 37.6012C68.0999 37.4775 67.8932 37.3043 67.7341 37.0817C67.5751 36.859 67.4585 36.5922 67.3843 36.2812C67.3136 35.9667 67.2783 35.6186 67.2783 35.2369C67.2783 34.8552 67.3401 34.5124 67.4638 34.2085C67.5875 33.9046 67.7624 33.6466 67.9886 33.4346C68.2148 33.2225 68.4851 33.06 68.7996 32.9469C69.1142 32.8338 69.4605 32.7772 69.8386 32.7772C69.9341 32.7772 70.0383 32.7808 70.1514 32.7878C70.268 32.7949 70.3829 32.8038 70.496 32.8144C70.609 32.825 70.7151 32.8391 70.814 32.8568C70.9165 32.8709 70.9996 32.8868 71.0632 32.9045L70.9041 33.6148C70.8264 33.5901 70.7274 33.5653 70.6073 33.5406C70.4871 33.5123 70.3599 33.4876 70.2256 33.4664C70.0949 33.4452 69.9641 33.4275 69.8333 33.4134C69.7026 33.3992 69.586 33.3922 69.4835 33.3922C69.3138 33.3922 69.153 33.4063 69.0011 33.4346C68.8527 33.4593 68.7166 33.5212 68.5929 33.6201C68.5258 33.6731 68.4692 33.7579 68.4233 33.8746C68.3809 33.9876 68.3473 34.1184 68.3226 34.2668C68.2978 34.4153 68.2801 34.5743 68.2695 34.7439C68.2625 34.9135 68.2589 35.0796 68.2589 35.2422C68.2589 35.896 68.3402 36.3961 68.5028 36.7424C68.6653 37.0887 68.9216 37.2619 69.2714 37.2619C69.3598 37.2619 69.4534 37.2584 69.5524 37.2513C69.6513 37.2442 69.7485 37.2354 69.8439 37.2248C69.9394 37.2106 70.0277 37.1965 70.109 37.1824C70.1938 37.1682 70.2662 37.1541 70.3263 37.14V35.8306ZM74.1642 37.7178H73.2154V35.8412L71.6993 32.8303H72.7807L73.9204 35.2263L75.1078 32.8303H75.6803L74.1642 35.8412V37.7178ZM80.4194 35.1627C80.4018 35.1026 80.3841 35.0461 80.3664 34.9931C80.3487 34.9365 80.3346 34.8888 80.324 34.8499C80.3099 34.804 80.2975 34.7598 80.2869 34.7174C80.2798 34.7598 80.2692 34.8058 80.2551 34.8552C80.2445 34.8976 80.2304 34.9489 80.2127 35.009C80.195 35.0655 80.1773 35.1256 80.1597 35.1892L79.3592 37.7178H78.4263L77.0639 32.8303H78.0605L78.845 35.7405C78.8768 35.8607 78.9086 35.9896 78.9404 36.1275C78.9723 36.2653 79.0023 36.3943 79.0306 36.5144C79.0624 36.6558 79.0942 36.7954 79.126 36.9332C79.1719 36.7813 79.2179 36.6328 79.2638 36.4879C79.3027 36.3643 79.3433 36.2335 79.3857 36.0957C79.4317 35.9578 79.4705 35.8377 79.5024 35.7352L80.2286 33.4452H80.7746L81.5273 35.7352C81.5591 35.8377 81.5945 35.9578 81.6334 36.0957C81.6758 36.23 81.7164 36.359 81.7553 36.4826C81.7977 36.6275 81.8401 36.7777 81.8825 36.9332C81.9214 36.7813 81.9602 36.6328 81.9991 36.4879C82.0309 36.3643 82.0645 36.2335 82.0998 36.0957C82.1352 35.9578 82.167 35.8377 82.1953 35.7352L82.948 32.8303H83.5152L82.1847 37.7178H81.257L80.4194 35.1627ZM88.5511 35.2581C88.5511 35.6433 88.5017 35.9914 88.4027 36.3024C88.3073 36.6134 88.1606 36.8802 87.9627 37.1029C87.7684 37.322 87.5245 37.4916 87.2312 37.6118C86.9379 37.7284 86.5968 37.7867 86.2081 37.7867C85.8088 37.7867 85.466 37.7266 85.1797 37.6065C84.8935 37.4863 84.6585 37.3167 84.4747 37.0976C84.2944 36.8749 84.1602 36.6081 84.0718 36.2971C83.987 35.9861 83.9446 35.6398 83.9446 35.2581C83.9446 34.8764 83.9888 34.5336 84.0771 34.2297C84.1655 33.9223 84.3015 33.6607 84.4853 33.4452C84.6726 33.2296 84.9094 33.0653 85.1956 32.9522C85.4819 32.8356 85.8211 32.7772 86.2134 32.7772C86.6057 32.7772 86.9467 32.8356 87.2365 32.9522C87.5298 33.0653 87.7737 33.2296 87.968 33.4452C88.1624 33.6607 88.3073 33.9223 88.4027 34.2297C88.5017 34.5336 88.5511 34.8764 88.5511 35.2581ZM87.5546 35.2581C87.5546 34.9613 87.5281 34.6944 87.475 34.4577C87.4256 34.2209 87.3461 34.0212 87.2365 33.8586C87.1269 33.6926 86.9874 33.5671 86.8177 33.4823C86.6481 33.3939 86.4467 33.3498 86.2134 33.3498C86.0084 33.3498 85.8176 33.3727 85.6409 33.4187C85.4642 33.4611 85.3246 33.5229 85.2221 33.6042C85.1196 33.6855 85.0437 33.864 84.9942 34.1396C84.9482 34.4153 84.9253 34.7881 84.9253 35.2581C84.9253 35.5514 84.9465 35.8183 84.9889 36.0586C85.0313 36.2953 85.102 36.5003 85.2009 36.6735C85.2999 36.8466 85.4306 36.9809 85.5932 37.0764C85.7593 37.1682 85.9643 37.2142 86.2081 37.2142C86.459 37.2142 86.6658 37.1912 86.8283 37.1453C86.9909 37.0993 87.1287 37.0375 87.2418 36.9597C87.2948 36.9244 87.3408 36.8537 87.3796 36.7477C87.4185 36.6417 87.4503 36.5127 87.475 36.3607C87.5033 36.2052 87.5228 36.0338 87.5334 35.8465C87.5475 35.6557 87.5546 35.4595 87.5546 35.2581ZM90.7723 35.7034H90.4542V37.7178H89.5106V32.8409C89.7015 32.8267 89.917 32.8144 90.1573 32.8038C90.3977 32.7931 90.6274 32.7878 90.8465 32.7878C91.4084 32.7878 91.8342 32.8956 92.124 33.1112C92.4173 33.3268 92.564 33.6643 92.564 34.1237C92.564 34.3287 92.5393 34.5071 92.4898 34.6591C92.4403 34.8111 92.3749 34.9436 92.2936 35.0567C92.2124 35.1698 92.1187 35.2652 92.0127 35.3429C91.9067 35.4207 91.7954 35.4861 91.6787 35.5391C91.8166 35.79 91.9473 36.0268 92.071 36.2494C92.1982 36.472 92.3237 36.6664 92.4474 36.8325C92.5746 36.9986 92.7018 37.1311 92.829 37.2301C92.9598 37.3255 93.0994 37.3732 93.2478 37.3732H93.2796V37.686C93.2054 37.7107 93.1188 37.7301 93.0199 37.7443C92.9245 37.7619 92.8167 37.7708 92.6965 37.7708C92.5234 37.7708 92.3714 37.7549 92.2406 37.7231C92.1134 37.6913 91.988 37.6224 91.8643 37.5163C91.7441 37.4103 91.6187 37.2548 91.4879 37.0498C91.3571 36.8449 91.2052 36.5675 91.032 36.2176L90.7723 35.7034ZM90.6238 35.221C90.7546 35.221 90.88 35.2051 91.0002 35.1733C91.1239 35.138 91.2211 35.0955 91.2918 35.0461C91.3271 35.0213 91.3624 34.9895 91.3978 34.9507C91.4331 34.9118 91.4649 34.8605 91.4932 34.7969C91.5215 34.7333 91.5444 34.652 91.5621 34.5531C91.5798 34.4541 91.5886 34.3304 91.5886 34.182C91.5886 34.0159 91.5692 33.8763 91.5303 33.7632C91.495 33.6501 91.4402 33.56 91.366 33.4929C91.2918 33.4222 91.1999 33.3727 91.0903 33.3445C90.9808 33.3126 90.8553 33.2967 90.714 33.2967C90.6751 33.2967 90.6309 33.2985 90.5814 33.302C90.5355 33.302 90.4931 33.3056 90.4542 33.3126V35.221H90.6238ZM97.5257 33.1589C97.4409 33.1589 97.3596 33.1713 97.2819 33.196C97.2041 33.2172 97.1246 33.2526 97.0433 33.302C96.9621 33.3515 96.8755 33.4169 96.7836 33.4982C96.6952 33.5759 96.5981 33.6713 96.492 33.7844C96.3754 33.9081 96.2517 34.046 96.121 34.1979C95.9937 34.3463 95.8559 34.5071 95.7075 34.6803C95.9019 35.0761 96.0874 35.4383 96.2641 35.767C96.4443 36.0957 96.6193 36.3802 96.7889 36.6205C96.9621 36.8572 97.1335 37.0428 97.3031 37.1771C97.4727 37.3078 97.6494 37.3732 97.8332 37.3732H97.8915V37.686C97.789 37.7142 97.6848 37.7354 97.5787 37.7496C97.4727 37.7637 97.349 37.7708 97.2077 37.7708C96.978 37.7708 96.7783 37.7319 96.6087 37.6542C96.439 37.5764 96.2765 37.4457 96.121 37.2619C95.9655 37.0746 95.8047 36.829 95.6386 36.525C95.476 36.2176 95.2887 35.8377 95.0767 35.3853C95.0519 35.4136 95.0219 35.4489 94.9866 35.4914C94.9547 35.5302 94.9194 35.5709 94.8805 35.6133C94.8452 35.6557 94.8116 35.6981 94.7798 35.7405C94.748 35.7794 94.7233 35.8094 94.7056 35.8306V37.7178H93.762V32.8303H94.7056V35.1203C94.7975 35.0107 94.907 34.8747 95.0343 34.7121C95.165 34.5495 95.2975 34.3834 95.4318 34.2138C95.5697 34.0442 95.7004 33.8834 95.8241 33.7314C95.9513 33.5795 96.0574 33.4575 96.1422 33.3657C96.2517 33.2455 96.3507 33.1501 96.439 33.0794C96.5274 33.0052 96.614 32.9504 96.6988 32.9151C96.7871 32.8762 96.8772 32.8515 96.9691 32.8409C97.061 32.8303 97.167 32.825 97.2872 32.825C97.3367 32.825 97.3932 32.8285 97.4568 32.8356C97.524 32.8391 97.5699 32.8462 97.5946 32.8568V33.1589H97.5257ZM100.706 37.7178H99.7628V32.8303H102.503L102.461 33.3232L100.706 33.3498V35.0832L102.403 35.1044L102.36 35.555L100.706 35.5921V37.7178ZM107.698 35.2581C107.698 35.6433 107.649 35.9914 107.55 36.3024C107.454 36.6134 107.308 36.8802 107.11 37.1029C106.916 37.322 106.672 37.4916 106.378 37.6118C106.085 37.7284 105.744 37.7867 105.355 37.7867C104.956 37.7867 104.613 37.7266 104.327 37.6065C104.041 37.4863 103.806 37.3167 103.622 37.0976C103.442 36.8749 103.307 36.6081 103.219 36.2971C103.134 35.9861 103.092 35.6398 103.092 35.2581C103.092 34.8764 103.136 34.5336 103.224 34.2297C103.313 33.9223 103.449 33.6607 103.632 33.4452C103.82 33.2296 104.057 33.0653 104.343 32.9522C104.629 32.8356 104.968 32.7772 105.361 32.7772C105.753 32.7772 106.094 32.8356 106.384 32.9522C106.677 33.0653 106.921 33.2296 107.115 33.4452C107.31 33.6607 107.454 33.9223 107.55 34.2297C107.649 34.5336 107.698 34.8764 107.698 35.2581ZM106.702 35.2581C106.702 34.9613 106.675 34.6944 106.622 34.4577C106.573 34.2209 106.493 34.0212 106.384 33.8586C106.274 33.6926 106.135 33.5671 105.965 33.4823C105.795 33.3939 105.594 33.3498 105.361 33.3498C105.156 33.3498 104.965 33.3727 104.788 33.4187C104.611 33.4611 104.472 33.5229 104.369 33.6042C104.267 33.6855 104.191 33.864 104.141 34.1396C104.095 34.4153 104.072 34.7881 104.072 35.2581C104.072 35.5514 104.094 35.8183 104.136 36.0586C104.178 36.2953 104.249 36.5003 104.348 36.6735C104.447 36.8466 104.578 36.9809 104.74 37.0764C104.906 37.1682 105.111 37.2142 105.355 37.2142C105.606 37.2142 105.813 37.1912 105.976 37.1453C106.138 37.0993 106.276 37.0375 106.389 36.9597C106.442 36.9244 106.488 36.8537 106.527 36.7477C106.566 36.6417 106.597 36.5127 106.622 36.3607C106.651 36.2052 106.67 36.0338 106.681 35.8465C106.695 35.6557 106.702 35.4595 106.702 35.2581ZM109.919 35.7034H109.601V37.7178H108.658V32.8409C108.849 32.8267 109.064 32.8144 109.305 32.8038C109.545 32.7931 109.775 32.7878 109.994 32.7878C110.556 32.7878 110.981 32.8956 111.271 33.1112C111.565 33.3268 111.711 33.6643 111.711 34.1237C111.711 34.3287 111.686 34.5071 111.637 34.6591C111.588 34.8111 111.522 34.9436 111.441 35.0567C111.36 35.1698 111.266 35.2652 111.16 35.3429C111.054 35.4207 110.943 35.4861 110.826 35.5391C110.964 35.79 111.095 36.0268 111.218 36.2494C111.345 36.472 111.471 36.6664 111.595 36.8325C111.722 36.9986 111.849 37.1311 111.976 37.2301C112.107 37.3255 112.247 37.3732 112.395 37.3732H112.427V37.686C112.353 37.7107 112.266 37.7301 112.167 37.7443C112.072 37.7619 111.964 37.7708 111.844 37.7708C111.671 37.7708 111.519 37.7549 111.388 37.7231C111.261 37.6913 111.135 37.6224 111.011 37.5163C110.891 37.4103 110.766 37.2548 110.635 37.0498C110.504 36.8449 110.352 36.5675 110.179 36.2176L109.919 35.7034ZM109.771 35.221C109.902 35.221 110.027 35.2051 110.147 35.1733C110.271 35.138 110.368 35.0955 110.439 35.0461C110.474 35.0213 110.51 34.9895 110.545 34.9507C110.58 34.9118 110.612 34.8605 110.64 34.7969C110.669 34.7333 110.692 34.652 110.709 34.5531C110.727 34.4541 110.736 34.3304 110.736 34.182C110.736 34.0159 110.716 33.8763 110.677 33.7632C110.642 33.6501 110.587 33.56 110.513 33.4929C110.439 33.4222 110.347 33.3727 110.238 33.3445C110.128 33.3126 110.003 33.2967 109.861 33.2967C109.822 33.2967 109.778 33.2985 109.729 33.302C109.683 33.302 109.64 33.3056 109.601 33.3126V35.221H109.771ZM116.191 37.7178H115.242V35.8412L113.726 32.8303H114.807L115.947 35.2263L117.134 32.8303H117.707L116.191 35.8412V37.7178ZM122.668 35.2581C122.668 35.6433 122.619 35.9914 122.52 36.3024C122.424 36.6134 122.278 36.8802 122.08 37.1029C121.886 37.322 121.642 37.4916 121.348 37.6118C121.055 37.7284 120.714 37.7867 120.325 37.7867C119.926 37.7867 119.583 37.7266 119.297 37.6065C119.011 37.4863 118.776 37.3167 118.592 37.0976C118.412 36.8749 118.277 36.6081 118.189 36.2971C118.104 35.9861 118.062 35.6398 118.062 35.2581C118.062 34.8764 118.106 34.5336 118.194 34.2297C118.283 33.9223 118.419 33.6607 118.602 33.4452C118.79 33.2296 119.027 33.0653 119.313 32.9522C119.599 32.8356 119.938 32.7772 120.331 32.7772C120.723 32.7772 121.064 32.8356 121.354 32.9522C121.647 33.0653 121.891 33.2296 122.085 33.4452C122.28 33.6607 122.424 33.9223 122.52 34.2297C122.619 34.5336 122.668 34.8764 122.668 35.2581ZM121.672 35.2581C121.672 34.9613 121.645 34.6944 121.592 34.4577C121.543 34.2209 121.463 34.0212 121.354 33.8586C121.244 33.6926 121.105 33.5671 120.935 33.4823C120.765 33.3939 120.564 33.3498 120.331 33.3498C120.126 33.3498 119.935 33.3727 119.758 33.4187C119.581 33.4611 119.442 33.5229 119.339 33.6042C119.237 33.6855 119.161 33.864 119.111 34.1396C119.065 34.4153 119.042 34.7881 119.042 35.2581C119.042 35.5514 119.064 35.8183 119.106 36.0586C119.148 36.2953 119.219 36.5003 119.318 36.6735C119.417 36.8466 119.548 36.9809 119.71 37.0764C119.876 37.1682 120.081 37.2142 120.325 37.2142C120.576 37.2142 120.783 37.1912 120.946 37.1453C121.108 37.0993 121.246 37.0375 121.359 36.9597C121.412 36.9244 121.458 36.8537 121.497 36.7477C121.536 36.6417 121.568 36.5127 121.592 36.3607C121.621 36.2052 121.64 36.0338 121.651 35.8465C121.665 35.6557 121.672 35.4595 121.672 35.2581ZM127.593 35.995C127.593 36.2388 127.547 36.4703 127.455 36.6894C127.367 36.905 127.234 37.094 127.058 37.2566C126.881 37.4192 126.66 37.5481 126.395 37.6436C126.133 37.739 125.83 37.7867 125.483 37.7867C125.197 37.7867 124.939 37.7566 124.709 37.6966C124.48 37.6365 124.282 37.5393 124.116 37.405C123.953 37.2672 123.827 37.0887 123.739 36.8696C123.651 36.6505 123.607 36.3819 123.607 36.0639V32.8303H124.55V36.1593C124.55 36.4031 124.571 36.5975 124.614 36.7424C124.656 36.8838 124.72 36.9933 124.805 37.0711C124.889 37.1488 124.994 37.2 125.117 37.2248C125.245 37.246 125.39 37.2566 125.552 37.2566C125.754 37.2566 125.925 37.2354 126.066 37.193C126.211 37.1506 126.331 37.094 126.427 37.0233C126.526 36.9527 126.588 36.8413 126.612 36.6894C126.637 36.5374 126.649 36.3537 126.649 36.1381V32.8303H127.593V35.995Z" fill="black"/>
</svg>
